<?xml version="1.0" encoding="utf-8"?>
<!-- Generator: Adobe Illustrator 18.1.1, SVG Export Plug-In . SVG Version: 6.00 Build 0)  -->
<!DOCTYPE svg PUBLIC "-//W3C//DTD SVG 1.1//EN" "http://www.w3.org/Graphics/SVG/1.1/DTD/svg11.dtd">
<svg version="1.1" xmlns="http://www.w3.org/2000/svg" xmlns:xlink="http://www.w3.org/1999/xlink" x="0px" y="0px"
	 viewBox="0 0 256.674 160.691" style="enable-background:new 0 0 256.674 160.691;" xml:space="preserve">
<g id="big">
	<g>
		<g>
			<g>
				<path style="fill:#444028;" d="M161.837,76.595h0.359c0.689,0,1.455-0.605,1.455-1.725V59.53c0-1.123-0.766-2.65-1.453-2.65
					h-0.361c-0.693,0-1.002,1.527-1.002,2.65v2.233c0,1.231-0.412,2.231-0.703,2.231s-0.703-0.667-0.703-1.492
					c0-0.827,0-1.492,0-1.492c0-0.783-0.533-1.312-1.318-1.312h-0.351c-0.78,0-1.148,0.526-1.148,1.312v1.492
					c0,0.823-0.444,1.419-0.661,1.419c-0.215,0-0.389,0-0.389,0h-0.608c-0.335,0-1.157-0.946-1.157-2.2c0-1.26,0-2.278,0-2.278
					c0-1.445-1.43-1.299-5.805-1.299c-0.045,0,0.191,0.146,0.131,0.146h-10.104c-0.231,0-0.365-0.047-0.443,0.08
					c-0.15,0.246-1.21,1.333-2.651,1.915c-14.386,5.81-32.459-0.588-33.19-0.588h-3.701c-0.776,0-1.976,0.038-1.976,0.813v23.749
					c0,0.773,1.199,0.785,1.976,0.785c0,0,0.355,0,0.713,0c0.395,0,0.715,0.998,0.715,1.849c0,0.849-0.449,1.692-1.01,1.692
					c-0.56,0-1.006,0.09-1.006,0.341c0,0.254,0.446,0.344,1.006,0.344c0.56,0,1.01,0,1.01,0h0.114c0.063,0,0.114,0.532,0.114,0.96
					c0,0.422,0.103,0.862,0.227,0.862c0.123,0,0.226-0.297,0.226-0.721c0-0.425,0.05-0.747,0.113-0.747
					c0.063,0,0.114-1.188,0.114-2.288c-0.004-1.104,0.305-2.292,0.682-2.292c0.379,0,0.686,0,0.686,0
					c0.774,0,1.361-0.012,1.361-0.785v-3.146c0-2.243,2.859-10.073,13.662-10.073c18.912-0.427,21.932,3.073,18.858,13.2
					c-1.994,6.044-3.133,9.165-3.79,11.151c-0.485,1.478-2.138,2.326-3.692,2.326H94.639c-0.66,0-1.399,1.229-1.399,1.891v1.819
					c0,0.66,0.739,0.515,1.399,0.515h66.185c0.66,0,1.42,0.146,1.42-0.515V99.61c0-0.658-0.76-1.891-1.42-1.891h-5.389
					c-1.555,0-2.817-0.915-2.82-2.468l-0.022-14.841c-0.001-1.557,0.193-2.821,0.734-3.055c0.474-0.203,0.467-0.354,0.467-0.602
					v-4.381c0-0.411,0-0.858,0-1.339v-0.256c0-0.14,0.858-0.254,1.408-0.254c0.549,0,1.408,0.648,1.408,1.45
					c0,0.801,0,1.451,0,1.451c0,0.782,0.365,1.761,1.149,1.761h0.351c0.783,0,1.318-0.978,1.318-1.761v-1.514
					c0-0.836,0.412-1.513,0.703-1.513s0.703,1.002,0.703,2.233c0,1.236,0,2.236,0,2.236
					C160.835,75.989,161.144,76.595,161.837,76.595z"/>
			</g>
			<g>
				<polygon style="fill:#444028;" points="174.281,74.956 177.807,74.956 177.807,86.973 182.097,86.973 182.097,74.956 
					185.621,74.956 185.621,71.237 174.281,71.237 				"/>
			</g>
			<g>
				<path style="fill:#444028;" d="M189.244,86.973l0.816-2.815h6.096l0.793,2.815h4.268l-5.438-15.735h-5.375l-5.428,15.735
					H189.244z M192.566,75.902c0.092-0.322,0.182-0.658,0.272-1.01c0.09-0.352,0.182-0.72,0.274-1.108
					c0.135,0.553,0.246,1.004,0.334,1.354c0.085,0.351,0.152,0.607,0.204,0.764l1.601,5.191h-4.268L192.566,75.902z"/>
			</g>
			<g>
				<rect x="202.83" y="71.237" style="fill:#444028;" width="4.332" height="15.735"/>
			</g>
			<g>
				<polygon style="fill:#444028;" points="210.622,71.237 210.622,86.973 220.242,86.973 220.242,83.298 214.91,83.298 
					214.91,71.237 				"/>
			</g>
			<g>
				<path style="fill:#444028;" d="M226.47,86.764c1.029,0.419,2.105,0.628,3.23,0.628c1.111,0,2.182-0.209,3.215-0.628
					c1.032-0.421,1.948-1.016,2.751-1.789c0.796-0.781,1.4-1.668,1.816-2.655c0.416-0.989,0.623-2.05,0.623-3.182
					c0-1.125-0.209-2.186-0.629-3.183c-0.419-0.995-1.023-1.88-1.811-2.654c-0.789-0.773-1.699-1.37-2.736-1.79
					c-1.034-0.418-2.11-0.627-3.229-0.627c-1.125,0-2.2,0.209-3.23,0.627c-1.029,0.42-1.933,1.017-2.714,1.79
					c-0.81,0.781-1.425,1.668-1.843,2.66c-0.42,0.993-0.629,2.052-0.629,3.177c0,1.118,0.209,2.174,0.629,3.17
					c0.418,0.996,1.033,1.886,1.843,2.667C224.538,85.748,225.441,86.343,226.47,86.764z M226.749,75.833
					c0.777-0.879,1.762-1.316,2.95-1.316c1.169,0,2.145,0.439,2.934,1.322c0.788,0.88,1.182,1.98,1.182,3.299
					c0,1.332-0.388,2.437-1.166,3.312c-0.777,0.874-1.762,1.311-2.95,1.311c-1.21,0-2.199-0.435-2.966-1.302
					c-0.766-0.867-1.148-1.973-1.148-3.32C225.585,77.812,225.972,76.71,226.749,75.833z"/>
			</g>
			<g>
				<path style="fill:#444028;" d="M251.599,79.11c0.6-0.763,0.898-1.754,0.898-2.971c0-0.803-0.152-1.539-0.457-2.204
					c-0.305-0.668-0.74-1.214-1.307-1.645c-0.501-0.38-1.098-0.651-1.789-0.812c-0.691-0.161-1.914-0.242-3.67-0.242h-4.483v15.735
					h4.021v-6.158l3.61,6.158h4.847l-4.287-6.341C250.128,80.381,251.001,79.875,251.599,79.11z M247.634,78.202
					c-0.428,0.316-1.102,0.473-2.027,0.473h-0.794v-4.138h0.858c0.939,0,1.607,0.166,2.004,0.499
					c0.398,0.334,0.598,0.896,0.598,1.683C248.273,77.393,248.06,77.887,247.634,78.202z"/>
			</g>
			<g>
				<path style="fill:#444028;" d="M27.456,75.941c0-0.71-0.154-1.335-0.457-1.877c-0.305-0.541-0.747-0.973-1.328-1.294
					c-0.509-0.28-1.115-0.477-1.821-0.591c-0.706-0.116-1.948-0.173-3.724-0.173h-4.311v15.736h4.437c1.793,0,3.082-0.06,3.87-0.183
					c0.788-0.123,1.452-0.327,1.989-0.614c0.66-0.351,1.166-0.845,1.521-1.481c0.354-0.64,0.532-1.377,0.532-2.215
					c0-1.169-0.316-2.102-0.945-2.801c-0.631-0.698-1.506-1.09-2.623-1.177c0.996-0.271,1.721-0.671,2.177-1.199
					C27.228,77.548,27.456,76.837,27.456,75.941z M19.793,75.123h0.923c1.068,0,1.787,0.122,2.156,0.36
					c0.368,0.24,0.553,0.658,0.553,1.252c0,0.574-0.197,0.978-0.592,1.209c-0.394,0.234-1.119,0.35-2.182,0.35h-0.858V75.123z
					 M23.457,84.147c-0.423,0.254-1.143,0.381-2.16,0.381h-1.504V81.1h1.569c1.044,0,1.762,0.13,2.147,0.392
					c0.388,0.263,0.582,0.723,0.582,1.382C24.092,83.469,23.88,83.893,23.457,84.147z"/>
			</g>
			<g>
				<polygon style="fill:#444028;" points="40.385,75.458 40.385,72.007 30.745,72.007 30.745,87.743 40.385,87.743 40.385,84.218 
					34.927,84.218 34.927,81.562 40.076,81.562 40.076,78.188 34.927,78.188 34.927,75.458 				"/>
			</g>
			<g>
				<path style="fill:#444028;" d="M47.662,84.819c-0.615,0-1.233-0.179-1.852-0.537c-0.621-0.358-1.25-0.9-1.889-1.624
					l-1.934,3.192c0.831,0.796,1.697,1.381,2.597,1.753c0.897,0.371,1.896,0.559,2.992,0.559c1.827,0,3.29-0.507,4.386-1.521
					c1.096-1.015,1.644-2.356,1.644-4.025c0-0.657-0.096-1.259-0.291-1.799c-0.193-0.542-0.477-1.006-0.849-1.394
					c-0.552-0.566-1.702-1.084-3.451-1.558l-0.192-0.055c-0.811-0.214-1.357-0.44-1.639-0.677c-0.284-0.237-0.425-0.552-0.425-0.945
					c0-0.388,0.161-0.705,0.482-0.952c0.323-0.247,0.743-0.37,1.259-0.37c0.502,0,1.008,0.105,1.521,0.317
					c0.512,0.21,1.012,0.524,1.498,0.94l1.344-3.086c-0.695-0.473-1.43-0.825-2.209-1.058c-0.777-0.233-1.599-0.35-2.467-0.35
					c-1.604,0-2.91,0.474-3.917,1.424c-1.007,0.95-1.511,2.177-1.511,3.681c0,1.162,0.318,2.074,0.957,2.741
					c0.637,0.666,1.727,1.209,3.267,1.623c1.126,0.302,1.847,0.593,2.167,0.876c0.318,0.283,0.477,0.687,0.477,1.21
					c0,0.474-0.184,0.864-0.552,1.172C48.707,84.665,48.236,84.819,47.662,84.819z"/>
			</g>
			<g>
				<polygon style="fill:#444028;" points="62.57,87.743 62.57,75.726 66.095,75.726 66.095,72.007 54.756,72.007 54.756,75.726 
					58.283,75.726 58.283,87.743 				"/>
			</g>
			<g>
				<rect x="1.283" y="99.108" style="fill:#444028;" width="81.758" height="2.146"/>
			</g>
			<g>
				<rect x="1.344" y="58.029" style="fill:#444028;" width="81.757" height="2.146"/>
			</g>
			<g>
				<rect x="173.216" y="56.955" style="fill:#444028;" width="81.758" height="2.148"/>
			</g>
			<g>
				<path style="fill:#444028;" d="M148.501,23.947c-2.549-1.434-5.217-2.607-7.928-3.486l-0.713,2.193
					c2.568,0.833,5.094,1.945,7.51,3.304L148.501,23.947z"/>
			</g>
			<g>
				<path style="fill:#444028;" d="M101.41,30.808l-1.481-1.767c-2.165,1.814-4.227,3.856-6.136,6.069l1.746,1.507
					C97.367,34.496,99.34,32.543,101.41,30.808z"/>
			</g>
			<g>
				<path style="fill:#444028;" d="M160.054,36.413l1.738-1.517c-1.92-2.204-3.996-4.234-6.17-6.038l-1.474,1.774
					C156.229,32.357,158.214,34.301,160.054,36.413z"/>
			</g>
			<g>
				<path style="fill:#444028;" d="M131.847,20.957l0.236-2.294c-2.865-0.294-5.818-0.284-8.679,0.03l0.253,2.294
					C126.353,20.689,129.143,20.678,131.847,20.957z"/>
			</g>
			<g>
				<path style="fill:#444028;" d="M115.656,22.737l-0.727-2.19c-2.705,0.897-5.365,2.087-7.911,3.54l1.144,2.003
					C110.575,24.715,113.095,23.586,115.656,22.737z"/>
			</g>
			<g>
				<path style="fill:#444028;" d="M165.011,43.041c1.469,2.292,2.815,4.739,3.994,7.271l2.09-0.976
					c-1.223-2.623-2.617-5.161-4.143-7.539L165.011,43.041z"/>
			</g>
			<g>
				<path style="fill:#444028;" d="M152.132,131.105l1.373,1.853c2.268-1.682,4.445-3.605,6.473-5.718l-1.663-1.598
					C156.376,127.661,154.296,129.5,152.132,131.105z"/>
			</g>
			<g>
				<path style="fill:#444028;" d="M137.402,138.21l0.568,2.236c2.772-0.704,5.51-1.708,8.139-2.985l-1.008-2.075
					C142.613,136.596,140.022,137.546,137.402,138.21z"/>
			</g>
			<g>
				<path style="fill:#444028;" d="M163.574,119.254l1.883,1.327c1.629-2.309,3.129-4.787,4.462-7.361l-2.05-1.059
					C166.587,114.644,165.14,117.028,163.574,119.254z"/>
			</g>
			<g>
				<path style="fill:#444028;" d="M171.195,104.554l2.168,0.788c0.648-1.785,1.23-3.612,1.754-5.16h79.797v-2.147h-81.759
					C172.477,99.71,172.131,101.978,171.195,104.554z"/>
			</g>
			<g>
				<path style="fill:#444028;" d="M83.477,108.099c1.103,2.671,2.38,5.269,3.793,7.719l1.999-1.15
					c-1.363-2.364-2.596-4.871-3.66-7.45L83.477,108.099z"/>
			</g>
			<g>
				<path style="fill:#444028;" d="M84.554,49.593l2.094,0.966c1.168-2.536,2.502-4.987,3.963-7.287l-1.947-1.237
					C87.148,44.42,85.765,46.964,84.554,49.593z"/>
			</g>
			<g>
				<path style="fill:#444028;" d="M121.119,138.804l-0.403,2.27c2.358,0.421,4.771,0.633,7.169,0.633
					c0.499,0,0.998-0.009,1.496-0.026l-0.084-2.306C126.58,139.469,123.81,139.282,121.119,138.804z"/>
			</g>
			<g>
				<path style="fill:#444028;" d="M93.896,121.54l-1.814,1.422c1.8,2.298,3.761,4.439,5.825,6.363l1.571-1.688
					C97.501,125.795,95.623,123.743,93.896,121.54z"/>
			</g>
			<g>
				<path style="fill:#444028;" d="M104.706,134.657c2.458,1.597,5.041,2.947,7.678,4.012l0.863-2.138
					c-2.5-1.009-4.949-2.291-7.284-3.808L104.706,134.657z"/>
			</g>
		</g>
		<g>
			<g>
				<path style="fill:#444028;" d="M95.939,9.115c3.102,4.919,4.653,7.379,7.754,12.298c-0.502,0.317-0.751,0.482-1.244,0.817
					c-3.269-4.81-4.902-7.216-8.172-12.025C94.937,9.756,95.269,9.538,95.939,9.115z"/>
				<path style="fill:#444028;" d="M105.115,4.417c0.635-0.256,0.954-0.383,1.594-0.619c2.018,5.454,3.025,8.185,5.043,13.639
					c-0.479,0.177-0.718,0.27-1.192,0.461c-0.304-0.393-0.834-1.003-1.625-1.812c-1.121-1.152-1.703-1.719-2.905-2.813
					c-0.506-0.45-1.272-1.117-2.311-1.979c-0.93-0.774-1.676-1.461-2.211-2.061c-0.036,0.019-0.053,0.029-0.09,0.049
					c0.51,0.684,1.01,1.511,1.508,2.476c1.607,3.12,2.411,4.68,4.019,7.8c-0.444,0.229-0.665,0.347-1.104,0.59
					c-2.812-5.09-4.221-7.636-7.033-12.726c0.592-0.327,0.889-0.485,1.488-0.794c3.48,2.662,5.096,4.11,8.04,7.175
					c0.665,0.688,1.053,1.145,1.188,1.347c0.034-0.014,0.052-0.019,0.086-0.032c-0.323-0.519-0.661-1.208-1.006-2.062
					C107.208,9.599,106.509,7.871,105.115,4.417z"/>
				<path style="fill:#444028;" d="M121.929,0.419c0.04,0.484,0.06,0.723,0.1,1.207c-1.209,0.101-1.812,0.17-3.018,0.336
					c0.729,5.279,1.094,7.921,1.821,13.2c-0.562,0.077-0.844,0.121-1.403,0.217c-0.902-5.253-1.353-7.883-2.256-13.136
					c-1.184,0.203-1.773,0.322-2.948,0.589c-0.107-0.474-0.161-0.709-0.269-1.183C117.115,0.934,118.717,0.687,121.929,0.419z"/>
				<path style="fill:#444028;" d="M123.682,8.967c-0.003-0.041-0.003-0.062-0.005-0.104c-0.015-0.239-0.06-0.438-0.082-0.568
					c-0.025-0.149-0.02-0.42-0.025-0.749c-0.005-0.33-0.012-0.58-0.022-0.75c-0.155-2.493,0.264-4.389,1.372-5.632
					c0.703-0.789,1.793-1.196,3.22-1.162c2.49,0.061,3.941,1.407,4.251,3.806c0.144,1.106,0.16,2.075,0.068,2.898
					c-0.031,0.28-0.086,0.685-0.16,1.213c-0.082,0.589-0.133,0.994-0.157,1.213c-0.179,1.616-0.69,3.028-1.443,4.265
					c-0.669,1.098-1.646,1.599-2.999,1.568c-1.242-0.027-2.132-0.541-2.727-1.61C124.244,12.045,123.783,10.59,123.682,8.967z
					 M130.667,7.152c0.188-2.44-0.045-4.108-0.748-4.977c-0.416-0.515-1.025-0.789-1.812-0.809c-0.771-0.019-1.377,0.192-1.8,0.615
					c-0.807,0.807-1.145,2.569-1.065,5.256c0.006,0.203,0.009,0.306,0.015,0.509c-0.02,0.102-0.037,0.174-0.04,0.208
					c-0.098,1.349,0.279,2.855,0.661,4.053c0.35,1.098,0.997,1.638,1.972,1.662c1.537,0.038,2.453-1.803,2.75-5.646
					C130.626,7.674,130.64,7.502,130.667,7.152z"/>
				<path style="fill:#444028;" d="M134.63,0.759c0.777,0.107,1.166,0.167,1.941,0.301c0.052,3.441,0.03,5.163-0.104,8.586
					c-0.042,1.086-0.115,2.228-0.225,3.424c0.037,0.008,0.056,0.012,0.093,0.019c0.213-0.66,0.494-1.409,0.853-2.236
					c0.33-0.764,0.499-1.14,0.842-1.899c0.11-0.239,0.347-0.746,0.718-1.509c1.021-2.15,1.559-3.215,2.686-5.326
					c0.644,0.17,0.966,0.257,1.607,0.445c-0.412,4.822-0.717,7.221-1.516,11.959c0.033,0.011,0.051,0.017,0.084,0.027
					c0.264-0.573,0.609-1.253,1.041-2.033c0.574-1.024,0.865-1.532,1.461-2.546c1.4-2.346,2.131-3.509,3.654-5.793
					c0.738,0.288,1.106,0.442,1.836,0.757c-3.65,4.759-5.316,7.241-8.305,12.349c-0.492-0.176-0.738-0.261-1.234-0.422
					c0.08-0.463,0.161-0.963,0.236-1.497c0.029-0.207,0.088-0.662,0.169-1.36c0.19-1.523,0.275-2.283,0.423-3.814
					c0.09-0.955,0.211-2.018,0.352-3.176c0.132-1.082,0.259-1.883,0.4-2.391c-0.039-0.011-0.061-0.016-0.1-0.026
					c-0.236,0.853-1.031,2.459-2.252,4.865c-0.684,1.349-1.012,2.025-1.65,3.391c-0.441,0.946-0.874,1.941-1.295,2.985
					c-0.51-0.116-0.764-0.171-1.275-0.272C135.224,9.67,135.138,6.699,134.63,0.759z"/>
				<path style="fill:#444028;" d="M157.731,9.239c0.591,0.376,0.884,0.569,1.466,0.965c-3.27,4.809-4.904,7.216-8.173,12.025
					c-0.435-0.296-0.655-0.442-1.097-0.723c0.141-0.477,0.323-1.265,0.516-2.383c0.276-1.589,0.393-2.393,0.578-4.012
					c0.068-0.675,0.164-1.689,0.26-3.037c0.085-1.208,0.209-2.214,0.385-2.997c-0.036-0.019-0.053-0.027-0.09-0.046
					c-0.259,0.812-0.641,1.697-1.137,2.664c-1.6,3.125-2.398,4.688-4,7.812c-0.445-0.229-0.67-0.337-1.119-0.552
					c2.5-5.251,3.752-7.877,6.252-13.128c0.606,0.289,0.907,0.437,1.506,0.744c-0.139,4.381-0.367,6.543-1.121,10.738
					c-0.168,0.945-0.308,1.527-0.393,1.756c0.031,0.021,0.048,0.03,0.08,0.052c0.232-0.566,0.594-1.241,1.088-2.019
					C154.732,13.958,155.732,12.382,157.731,9.239z"/>
			</g>
		</g>
		<g>
			<g>
				<path style="fill:#444028;" d="M86.89,143.4c0.471-0.481,0.707-0.721,1.178-1.201c0.135,1.193,0.703,2.246,1.676,3.097
					c0.68,0.595,1.406,0.874,2.154,0.846c0.688-0.026,1.224-0.295,1.61-0.787c0.659-0.839,0.71-1.862,0.226-3.081
					c-0.297-0.74-0.439-1.112-0.706-1.856c-0.479-1.344-0.554-2.435-0.294-3.25c0.15-0.472,0.439-0.915,0.856-1.333
					c0.456-0.456,1.049-0.733,1.765-0.859c1.26-0.222,2.364,0.11,3.396,0.987c0.664,0.565,1.15,1.258,1.484,2.11
					c-0.398,0.524-0.597,0.79-0.995,1.314c-0.126-1.019-0.493-1.777-1.135-2.317c-0.577-0.486-1.184-0.714-1.837-0.684
					c-0.615,0.028-1.153,0.268-1.597,0.742c-0.212,0.227-0.37,0.514-0.471,0.858c-0.132,0.455-0.042,1.222,0.321,2.292
					c0.291,0.851,0.446,1.277,0.777,2.125c0.605,1.547,0.596,2.824-0.156,3.848c-0.857,1.168-2.136,1.623-3.857,1.223
					c-0.834-0.193-1.643-0.622-2.396-1.283C87.857,145.284,87.189,144.336,86.89,143.4z"/>
				<path style="fill:#444028;" d="M103.941,139.999c-2.93,4.685-4.396,7.023-7.326,11.709c-0.643-0.402-0.961-0.609-1.592-1.034
					c3.077-4.59,4.616-6.881,7.694-11.47C103.203,139.53,103.449,139.69,103.941,139.999z"/>
				<path style="fill:#444028;" d="M110.677,143.476c0.466,0.192,0.699,0.283,1.168,0.463c-1.975,5.16-2.962,7.738-4.937,12.9
					c-0.611-0.233-0.916-0.353-1.522-0.604c0.014-0.484-0.015-1.287-0.057-2.398c-0.057-1.578-0.063-2.361-0.036-3.924
					c0.003-0.65,0.015-1.625,0.089-2.898c0.066-1.14,0.221-2.079,0.419-2.811c-0.03-0.016-0.046-0.024-0.075-0.04
					c-0.271,0.761-0.64,1.602-1.115,2.518c-1.535,2.961-2.305,4.44-3.841,7.402c-0.568-0.295-0.851-0.448-1.413-0.76
					c2.676-4.836,4.014-7.25,6.689-12.085c0.436,0.241,0.654,0.36,1.094,0.589c-0.509,3.977-0.629,6.007-0.59,10.116
					c0.012,0.926,0.012,1.506-0.021,1.737c0.039,0.017,0.06,0.025,0.099,0.042c0.105-0.576,0.325-1.267,0.661-2.076
					C108.644,148.377,109.322,146.745,110.677,143.476z"/>
				<path style="fill:#444028;" d="M117.279,158.036c-0.098,0.513-0.147,0.77-0.246,1.282c-0.96,0.206-1.872,0.204-2.712,0.005
					c-1.538-0.365-2.622-1.297-3.181-2.704c-0.373-0.938-0.411-2.127-0.134-3.561c0.104-0.538,0.259-1.114,0.466-1.732
					c0.652-1.958,1.496-3.45,2.462-4.517c0.494-0.546,1.071-0.922,1.731-1.145c0.699-0.237,1.405-0.269,2.141-0.097
					c0.762,0.178,1.329,0.438,1.713,0.809c-0.105,0.548-0.158,0.822-0.264,1.37c-0.446-0.474-0.994-0.78-1.66-0.935
					c-0.814-0.188-1.511-0.043-2.123,0.449c-0.464,0.373-0.951,1.073-1.465,2.104c-0.404,0.808-0.729,1.6-0.964,2.383
					c-0.352,1.177-0.532,2.366-0.503,3.572c0.036,1.501,0.805,2.472,2.27,2.814C115.69,158.34,116.521,158.304,117.279,158.036z"/>
				<path style="fill:#444028;" d="M126.055,146.899c-0.021,0.461-0.032,0.69-0.054,1.151c-1.359-0.063-2.041-0.12-3.393-0.281
					c-0.233,1.939-0.349,2.909-0.581,4.849c1.455,0.174,2.186,0.234,3.646,0.305c-0.023,0.479-0.035,0.718-0.059,1.197
					c-1.496-0.072-2.242-0.135-3.731-0.312c-0.257,2.145-0.388,3.219-0.644,5.365c1.684,0.201,2.53,0.271,4.223,0.35
					c-0.022,0.469-0.032,0.7-0.055,1.169c-2.458-0.114-3.686-0.234-6.123-0.602c0.826-5.464,1.239-8.191,2.065-13.653
					C123.222,146.719,124.167,146.812,126.055,146.899z"/>
				<path style="fill:#444028;" d="M136.054,146.272c0.951,5.441,1.428,8.158,2.377,13.603c-0.697,0.121-1.047,0.177-1.748,0.277
					c-0.719-4.999-1.078-7.495-1.799-12.492c-0.814,0.117-1.225,0.169-2.043,0.25c0.084-0.486,0.125-0.733,0.203-1.22
					C134.253,146.563,134.855,146.481,136.054,146.272z"/>
				<path style="fill:#444028;" d="M145.481,158.204c0.745-2.922,1.028-4.387,1.427-7.293c-0.022-0.007-0.033-0.01-0.055-0.017
					c-0.465,0.537-0.988,0.904-1.555,1.095c-1.162,0.391-2.211,0.058-3.062-0.966c-0.466-0.56-0.773-1.209-0.941-1.931
					c-0.053-0.193-0.079-0.287-0.132-0.48c-0.13-0.552-0.189-0.987-0.187-1.304c0.012-1.123,0.305-1.921,0.898-2.4
					c0.379-0.307,0.778-0.53,1.205-0.678c1.604-0.554,2.896-0.122,3.984,1.399c0.205,0.288,0.385,0.607,0.535,0.958
					c0.671,1.569,0.949,3.402,0.676,5.524c-0.285,2.193-0.476,3.295-0.953,5.501C146.589,157.861,146.22,157.98,145.481,158.204z
					 M146.305,147.359c-0.434-1.105-1.021-1.777-1.733-2.03c-0.342-0.121-0.686-0.119-1.031,0.001
					c-1.082,0.376-1.432,1.294-1.048,2.823c0.052,0.168,0.076,0.25,0.128,0.418c0.176,0.701,0.465,1.266,0.873,1.688
					c0.54,0.559,1.209,0.719,1.981,0.45C146.73,150.271,147.001,149.13,146.305,147.359z"/>
				<path style="fill:#444028;" d="M152.738,146.94c-0.033-0.072-2.316-0.545-2.979-1.889c-0.529-1.075-0.529-2.097-0.066-3.077
					c0.252-0.53,0.693-0.974,1.334-1.346c0.803-0.466,1.59-0.59,2.385-0.359c0.715,0.207,1.322,0.66,1.799,1.374
					c0.898,1.344,0.282,3.706,0.282,3.706c0.046,0.073,1.706,0.047,2.36,0.499c0.438,0.303,0.857,0.745,1.25,1.329
					c0.086,0.128,0.129,0.19,0.215,0.318c1.062,1.579,1.1,3.056,0.023,4.371c-0.357,0.436-0.838,0.833-1.438,1.177
					c-1.768,1.016-3.321,0.896-4.539-0.243c-0.391-0.366-0.703-0.795-0.938-1.283c-0.008-0.061-0.012-0.091-0.018-0.151
					C151.497,149.48,152.738,146.94,152.738,146.94z M157.675,148.107c-1.029-1.636-2.116-2.075-3.296-1.394
					c-0.767,0.441-1.133,0.973-1.104,1.625c0.033,0.739,0.218,1.454,0.572,2.136c0.936,1.8,2.048,2.379,3.299,1.666
					c0.03-0.03,0.046-0.046,0.075-0.076c0.017-0.014,0.025-0.018,0.041-0.031C158.669,151.227,158.793,149.884,157.675,148.107z
					 M153.974,142.489c-0.268-0.43-0.608-0.734-1.012-0.91c-0.486-0.212-0.962-0.177-1.436,0.098
					c-0.942,0.544-1.084,1.432-0.4,2.717c0.75,1.411,1.627,1.861,2.611,1.295c1.094-0.63,1.235-1.605,0.451-2.859
					C154.103,142.692,154.06,142.626,153.974,142.489z"/>
				<path style="fill:#444028;" d="M155.542,137.87c2.08-1.558,3.08-2.42,4.973-4.312c2.491,5.321,3.5,8.162,4.979,14.067
					c-0.634,0.511-0.955,0.761-1.601,1.246c-1.198-5.456-2.025-8.096-4.09-13.097c-1.392,1.276-2.113,1.875-3.597,2.985
					C155.94,138.405,155.808,138.226,155.542,137.87z"/>
			</g>
		</g>
	</g>
</g>
<g id="mid">
	<g>
		<path style="fill:#444028;" d="M86.33,37.446v27.268c0,0.89,1.379,0.903,2.271,0.903c0,0,0.409,0,0.818,0
			c0.453,0,0.823,1.144,0.823,2.122c0,0.976-0.518,1.944-1.16,1.944c-0.641,0-1.159,0.103-1.159,0.391
			c0,0.29,0.518,0.394,1.159,0.394c0.642,0,1.16,0,1.16,0h0.128c0.075,0,0.131,0.615,0.131,1.102c0,0.486,0.118,0.994,0.261,0.994
			c0.143,0,0.26-0.344,0.26-0.831c0-0.489,0.058-0.857,0.131-0.857c0.072,0,0.129-1.363,0.129-2.627
			c-0.003-1.267,0.35-2.631,0.784-2.631c0.435,0,0.786,0,0.786,0c0.891,0,1.564-0.014,1.564-0.903v-3.608
			c0-2.579,3.282-11.567,15.686-11.567c21.715-0.49,25.182,3.528,21.654,15.159c-2.292,6.936-3.599,10.52-4.351,12.804
			c-0.56,1.696-2.455,2.67-4.241,2.67H84.703c-0.759,0-1.606,1.412-1.606,2.172v2.087c0,0.76,0.847,0.592,1.606,0.592h75.993
			c0.76,0,1.634,0.167,1.634-0.592v-2.087c0-0.756-0.874-2.172-1.634-2.172h-6.184c-1.784,0-3.236-1.051-3.239-2.836l-0.025-17.039
			c-0.003-1.789,0.223-3.237,0.843-3.506c0.543-0.236,0.536-0.408,0.536-0.693v-5.029c0-0.473,0-0.987,0-1.537v-0.294
			c0-0.158,0.987-0.29,1.618-0.29c0.629,0,1.615,0.743,1.615,1.665c0,0.917,0,1.667,0,1.667c0,0.897,0.42,2.02,1.32,2.02h0.405
			c0.896,0,1.512-1.122,1.512-2.02v-1.739c0-0.96,0.474-1.738,0.807-1.738c0.332,0,0.811,1.152,0.811,2.566c0,1.418,0,2.568,0,2.568
			c0,1.282,0.352,1.981,1.147,1.981h0.412c0.793,0,1.673-0.699,1.673-1.981V36.32c0-1.286-0.88-3.042-1.671-3.042h-0.414
			c-0.796,0-1.147,1.756-1.147,3.042v2.564c0,1.417-0.478,2.564-0.811,2.564c-0.333,0-0.807-0.768-0.807-1.716
			c0-0.948,0-1.711,0-1.711c0-0.901-0.613-1.511-1.512-1.511h-0.405c-0.895,0-1.317,0.608-1.317,1.511v1.711
			c0,0.947-0.511,1.63-0.757,1.63c-0.249,0-0.448,0-0.448,0h-0.699c-0.383,0-1.33-1.085-1.33-2.525c0-1.445,0-2.616,0-2.616
			c0-1.66-1.641-1.493-6.664-1.493c-0.053,0,0.219,0.167,0.149,0.167h-11.6c-0.269,0-0.42-0.054-0.51,0.094
			c-0.171,0.283-1.391,1.53-3.046,2.199c-16.517,6.67-37.271-0.679-38.108-0.679h-4.25C87.709,36.51,86.33,36.557,86.33,37.446z"/>
		<path style="fill:#444028;" d="M19.387,141.285c0.482,0.482,1.269,0.482,1.751-0.001l2.465-2.466
			c0.251-0.25,0.663-0.244,0.986-0.098c0.71,0.319,1.565,0.197,2.137-0.374l16.481-16.48c0.575-0.575,0.692-1.434,0.366-2.139
			c-0.15-0.32-0.349-0.536-0.334-0.546c0.01-0.008,0.019-0.015,0.027-0.023l2.919-2.92c0.483-0.483,0.484-1.269,0.001-1.752
			l-9.524-9.524c-0.483-0.484-1.269-0.484-1.753,0.002l-2.918,2.917c-0.008,0.01-0.016,0.018-0.023,0.027
			c-0.01,0.015-0.226-0.183-0.547-0.333c-0.706-0.328-1.563-0.209-2.137,0.366l-16.48,16.48c-0.571,0.571-0.693,1.425-0.367,2.129
			c0.148,0.322,0.154,0.731-0.095,0.982c-0.823,0.823-2.477,2.476-2.477,2.476c-0.483,0.483-0.483,1.269-0.001,1.753L19.387,141.285
			z M24.007,135.651c-0.324,0.145-0.795,0.041-1.046-0.209l-0.68-0.68c-0.251-0.251-0.168-0.493,0.18-0.558
			c1.055-0.19,2.359-0.527,3.489-1.117c0.313-0.163,0.669-0.133,0.81,0.097c0.142,0.228,0.062,0.62-0.204,0.853
			C25.666,134.824,24.697,135.344,24.007,135.651z M19.312,131.253c1.555,0.207,3.535,0.256,5.424-0.298
			c0.341-0.1,0.721,0.004,0.86,0.257c0.14,0.252,0.016,0.614-0.298,0.773c-1.327,0.676-2.983,0.973-3.989,1.098
			c-0.352,0.044-0.84-0.135-1.09-0.385l-1.087-1.087C18.88,131.36,18.961,131.209,19.312,131.253z M17.589,129.621
			c-0.344-0.087-0.821-0.375-1.072-0.623l-1.677-1.677c-0.251-0.251-0.19-0.345,0.141-0.215c2.178,0.846,5.517,1.807,8.531,1.3
			c0.349-0.06,0.741,0.135,0.889,0.455c0.027,0.056,0.053,0.113,0.079,0.169c0.152,0.321,0.008,0.673-0.335,0.763
			C21.622,130.45,18.876,129.94,17.589,129.621z M27.626,135.634l-1.805,1.804c-0.238,0.239-0.634,0.229-0.884-0.021
			c0,0-0.121-0.121-0.268-0.268c-0.147-0.149-0.003-0.381,0.313-0.538c0.68-0.338,1.497-0.825,2.284-1.494
			c0.27-0.23,0.55-0.321,0.644-0.183C28.003,135.071,27.877,135.383,27.626,135.634z M29.651,133.609l-0.196,0.197
			c-0.251,0.25-0.616,0.216-0.812-0.08c-4.649-6.966-5.039-11.199-4.871-13.072c0.032-0.354,0.371-0.571,0.717-0.499
			c0.164,0.032,0.331,0.064,0.502,0.096c0.347,0.062,0.622,0.392,0.625,0.746c0.032,2.098,0.562,6.722,4.106,11.642
			C29.929,132.926,29.901,133.358,29.651,133.609z M31.787,131.474l-0.312,0.312c-0.252,0.252-0.627,0.225-0.831-0.063
			c-3.1-4.401-3.662-8.577-3.732-10.554c-0.011-0.355,0.279-0.612,0.631-0.582c0.241,0.018,0.486,0.034,0.735,0.048
			c0.353,0.019,0.64,0.312,0.655,0.665c0.086,1.924,0.591,5.624,2.944,9.191C32.072,130.788,32.039,131.222,31.787,131.474z
			 M34.033,129.228l-0.421,0.421c-0.251,0.25-0.618,0.216-0.807-0.082c-2.021-3.193-2.488-6.513-2.58-8.258
			c-0.018-0.353,0.268-0.644,0.62-0.659c0.28-0.012,0.563-0.03,0.851-0.051c0.353-0.025,0.63,0.235,0.64,0.588
			c0.043,1.563,0.374,4.211,1.842,7.024C34.342,128.526,34.284,128.977,34.033,129.228z M36.458,126.8l-0.58,0.581
			c-0.251,0.25-0.592,0.2-0.745-0.118c-1.229-2.525-1.483-4.89-1.514-6.228c-0.007-0.354,0.288-0.68,0.637-0.738
			c0.266-0.045,0.536-0.092,0.808-0.146c0.348-0.066,0.613,0.157,0.613,0.51c-0.001,1.363,0.159,3.39,0.945,5.115
			C36.769,126.098,36.709,126.549,36.458,126.8z M38.72,124.542l-0.406,0.405c-0.25,0.251-0.582,0.196-0.706-0.137
			c-0.584-1.549-0.663-3.347-0.641-4.462c0.006-0.354,0.303-0.714,0.642-0.814c0.128-0.036,0.257-0.075,0.388-0.114
			c0.337-0.102,0.585,0.095,0.576,0.447c-0.022,0.927,0.059,2.173,0.427,3.603C39.088,123.812,38.97,124.29,38.72,124.542z
			 M42.3,120.959l-1.634,1.634h0.001c-0.251,0.251-0.524,0.177-0.592-0.171c-0.244-1.266-0.245-2.323-0.192-3.03
			c0.027-0.352,0.231-0.698,0.43-0.778c0.199-0.08,0.563,0.058,0.812,0.307l1.153,1.154C42.53,120.325,42.539,120.719,42.3,120.959z
			 M33.319,108.305l2.012-2.012c0.251-0.25,0.657-0.249,0.907,0l8.619,8.618c0.25,0.251,0.25,0.656,0,0.907l-2.012,2.013
			c-0.251,0.25-0.656,0.25-0.906,0l-8.619-8.62C33.068,108.961,33.068,108.555,33.319,108.305z M29.161,109.877l1.029-1.029
			c0.238-0.238,0.633-0.228,0.884,0.022l1.049,1.049c0.251,0.252,0.166,0.453-0.189,0.446l-2.586-0.028
			C28.994,110.332,28.912,110.126,29.161,109.877z M26.532,112.507l0.455-0.456c0.251-0.251,0.74-0.452,1.094-0.447l5.152,0.059
			c0.352,0.002,0.843,0.208,1.093,0.459l0.257,0.256c0.25,0.249,0.17,0.5-0.182,0.545c-2.97,0.398-5.867,0.266-7.685,0.1
			C26.363,112.991,26.281,112.757,26.532,112.507z M23.96,115.075l0.513-0.514c0.251-0.248,0.738-0.411,1.09-0.367
			c1.801,0.219,5.854,0.559,9.944-0.145c0.349-0.058,0.834,0.085,1.084,0.337l0.445,0.445c0.251,0.251,0.179,0.54-0.162,0.635
			c-5.15,1.436-10.212,0.737-12.743,0.202C23.784,115.596,23.709,115.325,23.96,115.075z M21.636,117.401l0.363-0.361
			c0.25-0.252,0.729-0.375,1.072-0.291c2.359,0.585,8.523,1.736,14.826-0.249c0.339-0.106,0.812,0.001,1.062,0.252l0.275,0.275
			c0.25,0.249,0.185,0.557-0.148,0.677c-7.988,2.875-14.527,1.327-17.302,0.37C21.45,117.96,21.385,117.652,21.636,117.401z
			 M19.139,119.899l0.602-0.602c0.25-0.252,0.715-0.338,1.046-0.211c0.33,0.129,0.737,0.276,1.215,0.428
			c0.338,0.107,0.552,0.465,0.509,0.817c-0.016,0.138-0.031,0.287-0.041,0.446c-0.022,0.353-0.306,0.617-0.654,0.551
			c-0.827-0.151-1.754-0.449-2.536-0.743C18.949,120.463,18.888,120.15,19.139,119.899z M16.838,122.201l0.417-0.417
			c0.249-0.25,0.715-0.339,1.044-0.206c0.922,0.372,2.33,0.872,3.595,1.058c0.35,0.051,0.67,0.351,0.725,0.699
			c0.011,0.07,0.022,0.14,0.037,0.209c0.061,0.35-0.163,0.645-0.518,0.638c-2.239-0.03-4.063-0.694-5.184-1.234
			C16.634,122.795,16.588,122.45,16.838,122.201z M14.279,124.757l0.709-0.71c0.251-0.249,0.699-0.301,1.012-0.137
			c1.244,0.657,3.541,1.592,6.46,1.551c0.354-0.006,0.72,0.251,0.831,0.588c0.044,0.138,0.093,0.278,0.143,0.42
			c0.116,0.335-0.062,0.666-0.414,0.712c-3.153,0.42-6.784-0.907-8.61-1.706C14.085,125.334,14.029,125.008,14.279,124.757z
			 M11.192,130.431l2.013-2.012c0.251-0.25,0.656-0.25,0.907,0l8.619,8.619c0.249,0.249,0.25,0.654-0.001,0.907l-2.013,2.013
			c-0.25,0.25-0.654,0.249-0.904-0.002l-8.619-8.619C10.943,131.087,10.942,130.684,11.192,130.431z"/>
		<path style="fill:#444028;" d="M213.409,119.157c0.009,0.01,0.017,0.017,0.027,0.023c0.014,0.011-0.185,0.228-0.335,0.547
			c-0.328,0.705-0.209,1.562,0.365,2.137l16.48,16.48c0.572,0.572,1.428,0.694,2.131,0.368c0.321-0.15,0.73-0.156,0.982,0.095
			c0.822,0.822,2.475,2.477,2.475,2.477c0.484,0.482,1.27,0.483,1.753,0l9.524-9.523c0.482-0.483,0.482-1.269-0.001-1.752
			l-2.466-2.467c-0.251-0.249-0.245-0.661-0.1-0.985c0.32-0.71,0.199-1.564-0.373-2.135l-16.481-16.482
			c-0.574-0.573-1.433-0.692-2.137-0.364c-0.321,0.149-0.537,0.348-0.547,0.333c-0.007-0.009-0.015-0.018-0.023-0.027l-2.919-2.917
			c-0.483-0.484-1.269-0.486-1.751-0.002l-9.525,9.522c-0.483,0.484-0.483,1.271,0.001,1.754L213.409,119.157z M215.863,121.799
			c-0.005,0.354-0.21,0.437-0.46,0.188l-1.029-1.029c-0.239-0.239-0.229-0.636,0.022-0.885l1.049-1.05
			c0.251-0.252,0.451-0.165,0.445,0.188L215.863,121.799z M218.549,124.432c-0.031,0.352-0.265,0.434-0.516,0.184l-0.456-0.455
			c-0.251-0.249-0.452-0.74-0.446-1.094l0.056-5.152c0.004-0.352,0.21-0.844,0.46-1.094l0.256-0.255
			c0.251-0.251,0.5-0.172,0.546,0.179C218.848,119.716,218.716,122.615,218.549,124.432z M221.195,127.017
			c-0.072,0.348-0.343,0.421-0.593,0.171l-0.514-0.514c-0.25-0.253-0.411-0.738-0.368-1.09c0.22-1.801,0.559-5.853-0.144-9.944
			c-0.06-0.348,0.085-0.832,0.337-1.083l0.446-0.445c0.249-0.25,0.538-0.179,0.635,0.162
			C222.429,119.424,221.73,124.486,221.195,127.017z M222.929,129.512l-0.363-0.361c-0.251-0.251-0.374-0.73-0.29-1.073
			c0.587-2.359,1.736-8.522-0.249-14.827c-0.105-0.338,0.001-0.811,0.252-1.062l0.275-0.275c0.251-0.251,0.557-0.186,0.677,0.147
			c2.875,7.988,1.327,14.528,0.37,17.302C223.486,129.698,223.179,129.762,222.929,129.512z M226.113,131.867
			c-0.125,0.331-0.437,0.393-0.688,0.142l-0.603-0.603c-0.249-0.251-0.337-0.715-0.208-1.045c0.128-0.332,0.275-0.738,0.426-1.215
			c0.107-0.337,0.466-0.552,0.817-0.509c0.138,0.017,0.288,0.03,0.447,0.041c0.352,0.023,0.617,0.305,0.553,0.652
			C226.705,130.158,226.406,131.086,226.113,131.867z M227.726,134.31l-0.415-0.417c-0.25-0.249-0.34-0.715-0.206-1.044
			c0.371-0.922,0.874-2.329,1.058-3.595c0.052-0.351,0.35-0.669,0.699-0.726c0.069-0.01,0.14-0.022,0.209-0.036
			c0.351-0.06,0.644,0.165,0.64,0.517c-0.032,2.241-0.696,4.066-1.235,5.186C228.321,134.514,227.978,134.56,227.726,134.31z
			 M231.002,136.737c-0.142,0.326-0.469,0.382-0.719,0.132l-0.709-0.71c-0.25-0.251-0.301-0.699-0.138-1.012
			c0.658-1.245,1.593-3.54,1.551-6.461c-0.005-0.353,0.251-0.719,0.588-0.831c0.138-0.043,0.278-0.091,0.42-0.141
			c0.334-0.117,0.666,0.061,0.712,0.414C233.129,131.281,231.801,134.911,231.002,136.737z M232.846,136.309
			c-0.25,0.25-0.343,0.188-0.215-0.143c0.848-2.177,1.809-5.517,1.302-8.532c-0.06-0.347,0.134-0.741,0.454-0.889
			c0.057-0.027,0.113-0.052,0.169-0.078c0.32-0.151,0.673-0.009,0.764,0.334c0.657,2.524,0.146,5.271-0.173,6.557
			c-0.087,0.343-0.373,0.822-0.624,1.072L232.846,136.309z M245.483,130.43c0.251,0.251,0.251,0.656,0,0.905l-8.618,8.62
			c-0.25,0.25-0.656,0.252-0.906,0l-2.013-2.012c-0.251-0.252-0.251-0.658,0-0.906l8.618-8.619c0.25-0.251,0.656-0.251,0.907,0
			L245.483,130.43z M236.482,126.412c-0.1-0.341,0.003-0.721,0.257-0.859c0.252-0.139,0.613-0.016,0.773,0.299
			c0.674,1.324,0.972,2.982,1.098,3.989c0.043,0.35-0.135,0.84-0.386,1.089l-1.087,1.087c-0.251,0.251-0.404,0.171-0.357-0.181
			C236.986,130.282,237.036,128.303,236.482,126.412z M240.462,123.238c0.134-0.093,0.446,0.033,0.697,0.284l1.806,1.806
			c0.238,0.238,0.228,0.633-0.022,0.884c0,0-0.121,0.119-0.269,0.268c-0.146,0.148-0.379,0.003-0.537-0.314
			c-0.337-0.678-0.826-1.496-1.494-2.284C240.414,123.613,240.324,123.334,240.462,123.238z M241.177,127.141
			c0.145,0.323,0.041,0.796-0.21,1.046l-0.68,0.679c-0.25,0.251-0.492,0.168-0.556-0.18c-0.192-1.054-0.529-2.357-1.117-3.488
			c-0.163-0.313-0.133-0.67,0.095-0.812c0.229-0.142,0.621-0.061,0.854,0.205C240.349,125.481,240.87,126.45,241.177,127.141z
			 M239.134,121.497l0.198,0.197c0.249,0.25,0.215,0.616-0.079,0.812c-6.967,4.648-11.2,5.037-13.073,4.87
			c-0.353-0.032-0.57-0.37-0.498-0.718c0.032-0.164,0.064-0.331,0.096-0.501c0.062-0.347,0.392-0.623,0.747-0.626
			c2.097-0.031,6.722-0.561,11.642-4.105C238.454,121.219,238.885,121.246,239.134,121.497z M237,119.361l0.312,0.313
			c0.251,0.25,0.226,0.625-0.065,0.831c-4.402,3.099-8.576,3.662-10.554,3.731c-0.354,0.011-0.612-0.278-0.581-0.632
			c0.018-0.24,0.035-0.485,0.047-0.735c0.019-0.353,0.312-0.639,0.667-0.654c1.924-0.087,5.623-0.59,9.191-2.944
			C236.313,119.075,236.749,119.109,237,119.361z M234.753,117.115l0.42,0.42c0.251,0.252,0.218,0.619-0.081,0.809
			c-3.191,2.02-6.511,2.486-8.257,2.578c-0.354,0.019-0.645-0.267-0.66-0.619c-0.013-0.28-0.029-0.562-0.05-0.851
			c-0.026-0.351,0.234-0.63,0.587-0.64c1.564-0.044,4.21-0.374,7.023-1.842C234.052,116.806,234.503,116.865,234.753,117.115z
			 M232.327,114.69l0.58,0.581c0.251,0.25,0.202,0.59-0.116,0.744c-2.526,1.229-4.889,1.484-6.23,1.514
			c-0.354,0.006-0.681-0.289-0.737-0.637c-0.045-0.266-0.093-0.536-0.146-0.807c-0.066-0.348,0.157-0.614,0.511-0.615
			c1.362,0.003,3.388-0.158,5.114-0.944C231.625,114.379,232.076,114.439,232.327,114.69z M230.067,112.428l0.405,0.405
			c0.25,0.251,0.195,0.583-0.136,0.707c-1.55,0.585-3.347,0.663-4.464,0.641c-0.353-0.006-0.714-0.301-0.813-0.642
			c-0.036-0.128-0.075-0.257-0.114-0.388c-0.103-0.336,0.094-0.584,0.448-0.576c0.926,0.024,2.173-0.058,3.603-0.427
			C229.337,112.06,229.816,112.177,230.067,112.428z M224.446,110.023l1.153-1.154c0.251-0.251,0.646-0.259,0.885-0.021l1.634,1.634
			l0.001-0.001c0.251,0.25,0.174,0.522-0.172,0.592c-1.266,0.244-2.323,0.244-3.03,0.191c-0.353-0.026-0.699-0.231-0.778-0.431
			C224.058,110.636,224.196,110.271,224.446,110.023z M211.819,114.91l8.619-8.618c0.25-0.249,0.655-0.25,0.906,0l2.012,2.012
			c0.251,0.251,0.251,0.656,0.001,0.907l-8.618,8.62c-0.251,0.249-0.656,0.249-0.907-0.002l-2.012-2.011
			C211.569,115.566,211.569,115.161,211.819,114.91z"/>
		<path style="fill:#444028;" d="M111.947,139.38l0.896,0.647c0.588,0.428,0.883,1.011,0.883,1.748c0,0.431-0.124,0.805-0.371,1.116
			c-0.268,0.341-0.611,0.512-1.031,0.512c-0.6,0-1.119-0.261-1.555-0.783v1.16c0.395,0.317,0.905,0.477,1.53,0.477
			c0.457,0,0.864-0.129,1.222-0.383c0.741-0.527,1.111-1.291,1.111-2.291c0-0.877-0.375-1.602-1.124-2.173l-1.024-0.784
			c-0.515-0.396-0.83-0.737-0.944-1.031c-0.087-0.222-0.13-0.44-0.13-0.654c0-0.447,0.125-0.823,0.376-1.123
			c0.264-0.32,0.615-0.481,1.056-0.481c0.49,0,0.941,0.254,1.353,0.759v-1.136c-0.465-0.329-0.959-0.493-1.482-0.493
			c-0.811,0-1.43,0.358-1.857,1.073c-0.244,0.408-0.365,0.835-0.365,1.279c0,0.406,0.06,0.763,0.18,1.068
			C110.876,138.413,111.302,138.911,111.947,139.38z"/>
		<rect x="115.806" y="134.595" style="fill:#444028;" width="0.889" height="9.53"/>
		<path style="fill:#444028;" d="M121.087,141.086l-2.128-6.491h-0.764v9.53h0.759v-5.753c0-0.711-0.033-1.343-0.099-1.895h0.049
			c0.095,0.51,0.266,1.129,0.512,1.858c0.281,0.809,0.493,1.419,0.638,1.825l0.843,2.458c0.239,0.691,0.399,1.192,0.481,1.506h0.785
			v-9.53h-0.785v6.105c0,0.605,0.031,1.105,0.094,1.499h-0.054C121.39,142.043,121.28,141.673,121.087,141.086z"/>
		<path style="fill:#444028;" d="M124.078,143.034c0.469,0.813,1.084,1.222,1.845,1.222c0.415,0,0.844-0.133,1.284-0.396v-0.9
			c-0.346,0.279-0.741,0.42-1.185,0.42c-0.741,0-1.226-0.494-1.456-1.482c-0.186-0.794-0.278-1.615-0.278-2.462
			c0-0.565,0.045-1.153,0.136-1.767c0.115-0.782,0.278-1.339,0.488-1.673c0.275-0.44,0.67-0.66,1.185-0.66
			c0.42,0,0.79,0.132,1.111,0.395v-0.963c-0.28-0.201-0.666-0.301-1.161-0.301c-0.477,0-0.905,0.143-1.284,0.432
			c-0.358,0.271-0.629,0.637-0.815,1.098c-0.362,0.901-0.543,2.064-0.543,3.488c0,0.448,0.019,0.86,0.056,1.235
			C123.559,141.718,123.765,142.489,124.078,143.034z"/>
		<polygon style="fill:#444028;" points="128.349,144.125 131.336,144.125 131.336,143.316 129.238,143.316 129.238,139.588 
			131.281,139.588 131.281,138.762 129.238,138.762 129.238,135.391 131.336,135.391 131.336,134.595 128.349,134.595 		"/>
		<polygon style="fill:#444028;" points="135.558,135.416 136.824,135.416 136.824,144.125 137.681,144.125 137.681,134.595 
			135.762,134.595 		"/>
		<path style="fill:#444028;" d="M140.497,136.039c-0.054,0.21-0.086,0.51-0.099,0.901v0.346c-0.017,0.512,0.057,0.997,0.22,1.458
			c0.303,0.84,0.783,1.259,1.438,1.259c0.319,0,0.647-0.117,0.982-0.351l0.024,0.023l-1.878,4.451h0.929l1.395-3.339
			c0.539-1.292,0.809-2.526,0.809-3.704c0-0.264-0.023-0.514-0.068-0.753c-0.238-1.259-0.891-1.89-1.957-1.89
			c-0.284,0-0.567,0.062-0.851,0.186C140.996,134.82,140.681,135.291,140.497,136.039z M141.218,136.891
			c0.045-1.087,0.419-1.629,1.121-1.629c0.224,0,0.421,0.079,0.591,0.241c0.353,0.337,0.529,0.915,0.529,1.733
			c0,1.314-0.364,1.969-1.09,1.969c-0.445,0-0.766-0.24-0.96-0.722c-0.148-0.363-0.213-0.793-0.192-1.29V136.891z"/>
		<path style="fill:#444028;" d="M148.545,138.842c0.654-0.387,0.981-1.138,0.981-2.252c0-0.594-0.146-1.085-0.438-1.477
			c-0.329-0.432-0.78-0.647-1.352-0.647c-0.457,0-0.83,0.121-1.118,0.364c-0.53,0.447-0.796,1.085-0.796,1.912
			c0,1.035,0.334,1.733,1.001,2.1c-0.807,0.3-1.209,1.174-1.209,2.617l-0.025,0.099c0,0.374,0.048,0.734,0.142,1.08
			c0.292,1.078,0.918,1.618,1.877,1.618c0.325,0,0.613-0.065,0.864-0.192c0.757-0.382,1.136-1.23,1.136-2.543v-0.266
			c0-0.485-0.051-0.898-0.154-1.239C149.3,139.504,148.997,139.112,148.545,138.842z M146.699,136.767
			c0-1.004,0.328-1.505,0.981-1.505c0.33,0,0.585,0.149,0.766,0.45c0.148,0.251,0.222,0.551,0.222,0.9v0.279
			c0,1.021-0.345,1.532-1.037,1.532C147.01,138.423,146.699,137.871,146.699,136.767z M147.582,143.428l-0.025,0.007l-0.049,0.018
			c-0.691,0-1.038-0.699-1.038-2.099c0-0.531,0.085-1.025,0.254-1.487c0.148-0.407,0.459-0.611,0.932-0.611
			c0.729,0,1.093,0.667,1.093,2C148.748,142.703,148.359,143.428,147.582,143.428z"/>
		<polygon style="fill:#444028;" points="150.963,135.361 153.692,135.361 151.016,144.125 151.952,144.125 154.883,134.595 
			150.963,134.595 		"/>
		<polygon style="fill:#444028;" points="72.26,129.459 79.242,129.459 79.242,109.895 84.981,109.895 84.981,103.84 66.521,103.84 
			66.521,109.895 72.26,109.895 		"/>
		<path style="fill:#444028;" d="M90.878,129.459l1.331-4.584h9.92l1.295,4.584h6.947l-8.854-25.618h-8.749l-8.838,25.618H90.878z
			 M96.286,111.436c0.151-0.525,0.3-1.074,0.445-1.645c0.146-0.572,0.295-1.173,0.446-1.802c0.222,0.899,0.403,1.633,0.543,2.204
			c0.14,0.572,0.251,0.985,0.334,1.243l2.605,8.451h-6.946L96.286,111.436z"/>
		<rect x="112.997" y="103.84" style="fill:#444028;" width="7.052" height="25.618"/>
		<polygon style="fill:#444028;" points="141.344,123.474 132.664,123.474 132.664,103.84 125.683,103.84 125.683,129.459 
			141.344,129.459 		"/>
		<path style="fill:#444028;" d="M147.066,126.204c1.271,1.26,2.744,2.232,4.418,2.914c1.674,0.682,3.427,1.024,5.258,1.024
			c1.808,0,3.553-0.342,5.232-1.024c1.68-0.682,3.173-1.654,4.479-2.914c1.295-1.272,2.28-2.713,2.957-4.322
			c0.677-1.609,1.015-3.335,1.015-5.18c0-1.831-0.341-3.558-1.023-5.18c-0.683-1.62-1.666-3.061-2.948-4.322
			c-1.284-1.259-2.768-2.231-4.454-2.913c-1.686-0.682-3.438-1.022-5.258-1.022c-1.831,0-3.584,0.34-5.258,1.022
			c-1.674,0.682-3.147,1.654-4.418,2.913c-1.318,1.272-2.318,2.716-3.001,4.332c-0.682,1.615-1.025,3.338-1.025,5.169
			c0,1.82,0.343,3.541,1.025,5.163C144.748,123.485,145.747,124.931,147.066,126.204z M151.939,111.321
			c1.266-1.429,2.866-2.145,4.803-2.145c1.901,0,3.494,0.718,4.778,2.154c1.283,1.435,1.923,3.226,1.923,5.371
			c0,2.17-0.632,3.967-1.898,5.39c-1.266,1.423-2.867,2.135-4.803,2.135c-1.972,0-3.581-0.705-4.829-2.118
			c-1.249-1.411-1.872-3.213-1.872-5.407C150.041,114.544,150.674,112.751,151.939,111.321z"/>
		<path style="fill:#444028;" d="M181.345,119.433l5.88,10.026h7.891l-6.982-10.325c1.867-0.407,3.287-1.233,4.261-2.476
			c0.974-1.242,1.461-2.855,1.461-4.838c0-1.307-0.248-2.502-0.744-3.587c-0.496-1.086-1.205-1.977-2.126-2.677
			c-0.817-0.617-1.789-1.059-2.914-1.32c-1.126-0.264-3.118-0.395-5.976-0.395h-7.296v25.618h6.544V119.433z M181.345,109.213h1.4
			c1.528,0,2.617,0.271,3.264,0.813c0.647,0.543,0.972,1.455,0.972,2.739c0,1.097-0.348,1.901-1.042,2.415
			c-0.694,0.514-1.793,0.769-3.299,0.769h-1.295V109.213z"/>
		<path style="fill:#444028;" d="M198.308,93.85c0.343-2.926,0.526-5.895,0.526-8.854h-2.718c0,2.96-0.19,5.931-0.544,8.854H51.315
			c-0.266-3.997-0.386-6.438-0.386-8.854c0-0.66,0.009-1.318,0.027-1.976l-2.717-0.072c-0.019,0.681-0.028,1.363-0.028,2.047
			c0,2.451,0.12,4.924,0.382,8.854H0v58.549h256.674V93.85H198.308z M253.723,149.446H2.952V96.802h250.771V149.446z"/>
		<path style="fill:#444028;" d="M184.186,40.358c-2.044-2.773-4.301-5.433-6.708-7.904l-1.946,1.896
			c2.319,2.382,4.495,4.945,6.467,7.62L184.186,40.358z"/>
		<path style="fill:#444028;" d="M169.753,25.54c-2.725-2.122-5.62-4.071-8.602-5.795l-1.36,2.354
			c2.876,1.662,5.665,3.542,8.292,5.586L169.753,25.54z"/>
		<path style="fill:#444028;" d="M198.575,78.717c-0.284-3.445-0.81-6.895-1.561-10.249l-2.653,0.593
			c0.724,3.234,1.23,6.559,1.505,9.88L198.575,78.717z"/>
		<path style="fill:#444028;" d="M151.831,15.186c-3.199-1.298-6.518-2.383-9.864-3.226l-0.663,2.636
			c3.224,0.812,6.422,1.858,9.505,3.11L151.831,15.186z"/>
		<path style="fill:#444028;" d="M194.051,58.529c-1.209-3.221-2.657-6.393-4.304-9.424l-2.389,1.297
			c1.588,2.922,2.983,5.978,4.148,9.083L194.051,58.529z"/>
		<path style="fill:#444028;" d="M62.728,45.309l-2.274-1.487c-1.889,2.888-3.595,5.933-5.067,9.051l2.458,1.162
			C59.264,51.028,60.907,48.092,62.728,45.309z"/>
		<path style="fill:#444028;" d="M75.828,30.267l-1.786-2.048c-2.6,2.268-5.065,4.734-7.329,7.334l2.05,1.785
			C70.945,34.832,73.322,32.453,75.828,30.267z"/>
		<path style="fill:#444028;" d="M131.468,12.833l0.295-2.702c-3.421-0.372-6.928-0.514-10.359-0.417l0.076,2.717
			C124.79,12.34,128.171,12.473,131.468,12.833z"/>
		<path style="fill:#444028;" d="M54.21,63.351l-2.594-0.809c-1.027,3.288-1.832,6.683-2.396,10.088l2.683,0.444
			C52.445,69.79,53.222,66.52,54.21,63.351z"/>
		<path style="fill:#444028;" d="M111.531,13.388l-0.446-2.681c-3.405,0.565-6.798,1.375-10.087,2.404l0.812,2.594
			C104.98,14.714,108.249,13.934,111.531,13.388z"/>
		<path style="fill:#444028;" d="M92.503,19.343l-1.162-2.456c-3.115,1.474-6.156,3.18-9.039,5.069l1.489,2.274
			C86.571,22.408,89.503,20.764,92.503,19.343z"/>
	</g>
</g>
<g id="small">
	<g>
		<path style="fill:#444028;" d="M165.774,61.318c-0.24-0.295-0.443-0.615-0.606-0.967c-0.208,0.494-0.364,0.957-0.448,1.215
			l-0.283,0.889l0.72-0.594C165.266,61.77,165.497,61.572,165.774,61.318z"/>
		<path style="fill:#444028;" d="M163.713,84.396c-0.314,0-0.561,0.119-0.738,0.355c-0.336,0.453-0.504,1.439-0.504,2.953v0.287
			c-0.011,0.057-0.018,0.096-0.021,0.117c0,0.852,0.091,1.615,0.271,2.293c0.167,0.625,0.505,0.938,1.014,0.938
			c0.805,0,1.207-1.088,1.207-3.262v-0.494c0-1.381-0.156-2.307-0.469-2.773C164.288,84.533,164.036,84.396,163.713,84.396z"/>
		<path style="fill:#444028;" d="M154.625,97.449c-0.314,0-0.562,0.119-0.738,0.355c-0.337,0.455-0.505,1.439-0.505,2.955v0.287
			c-0.011,0.057-0.018,0.096-0.02,0.115c0,0.851,0.09,1.617,0.27,2.297c0.167,0.621,0.505,0.934,1.015,0.934
			c0.804,0,1.206-1.088,1.206-3.26v-0.496c0-1.381-0.155-2.305-0.469-2.773C155.2,97.588,154.948,97.449,154.625,97.449z"/>
		<path style="fill:#444028;" d="M145.482,118.633c-1.472,0-2.687,0.543-3.648,1.629c-0.962,1.082-1.442,2.447-1.442,4.086
			c0,1.666,0.475,3.033,1.422,4.105c0.949,1.074,2.172,1.609,3.669,1.609c1.472,0,2.686-0.541,3.649-1.621
			c0.961-1.082,1.44-2.445,1.44-4.094c0-1.631-0.486-2.99-1.46-4.082C148.135,119.178,146.926,118.633,145.482,118.633z"/>
		<path style="fill:#444028;" d="M167.196,58.377c-0.111-0.068-0.23-0.105-0.354-0.105c-0.447,0-0.87,0.512-1.223,1.141
			c0.132,0.525,0.369,0.986,0.684,1.393c0.614-0.629,1.225-1.395,1.19-1.924C167.481,58.668,167.377,58.494,167.196,58.377z"/>
		<path style="fill:#444028;" d="M100.653,119.402c-0.105-0.434-0.244-0.992-0.412-1.674c-0.115,0.479-0.229,0.934-0.34,1.369
			c-0.109,0.434-0.223,0.85-0.338,1.248l-1.953,6.42h5.275l-1.98-6.42C100.843,120.152,100.758,119.838,100.653,119.402z"/>
		<path style="fill:#444028;" d="M167.836,57.703c0.281,0.199,0.453,0.49,0.497,0.842c0.127,1.008-0.822,2.379-1.308,3.006
			c0.727,0.623,1.616,1.109,2.462,1.541c0.602-2.066,0.793-3.781,0.401-5.238c-0.37-1.369-1.537-2.152-2.497-2.152
			c-0.034,0-0.067,0.002-0.099,0.004c-0.916,0.053-1.549,0.822-1.74,2.105c-0.023,0.168-0.037,0.326-0.043,0.481
			c0.458-0.461,1.001-0.836,1.566-0.836C167.346,57.455,167.602,57.539,167.836,57.703z"/>
		<path style="fill:#444028;" d="M165.232,118.658h-1.062v5.117h0.984c1.142,0,1.978-0.195,2.504-0.584
			c0.526-0.391,0.792-1.002,0.792-1.834c0-0.977-0.246-1.67-0.738-2.08C167.219,118.863,166.393,118.658,165.232,118.658z"/>
		<path style="fill:#444028;" d="M200.575,18.225h-0.769c-1.476,0-2.131,3.254-2.131,5.639v4.756c0,2.623-0.881,4.75-1.498,4.75
			c-0.62,0-1.501-1.418-1.501-3.176c0-1.76,0-3.178,0-3.178c0-1.668-1.134-2.795-2.802-2.795h-0.748
			c-1.661,0-2.446,1.123-2.446,2.795v3.178c0,1.754-0.945,3.02-1.404,3.02c-0.459,0-0.829,0-0.829,0h-1.294
			c-0.712,0-2.469-2.014-2.469-4.684c0-2.678,0-4.848,0-4.848c0-3.08-3.04-2.766-12.352-2.766c-0.099,0,0.402,0.309,0.277,0.309
			H149.1c-0.494,0-0.777-0.1-0.943,0.172c-0.318,0.527-2.576,2.838-5.646,4.076c-30.626,12.371-69.102-1.252-70.656-1.252h-7.882
			c-1.652,0-4.207,0.084-4.207,1.734v50.557c0,1.648,2.555,1.672,4.207,1.672c0,0,0.758,0,1.52,0c0.838,0,1.521,2.123,1.521,3.936
			c0,1.809-0.959,3.602-2.148,3.602c-1.191,0-2.147,0.191-2.147,0.727c0,0.541,0.955,0.732,2.147,0.732c1.189,0,2.148,0,2.148,0
			h0.242c0.135,0,0.244,1.135,0.244,2.043c0,0.899,0.215,1.838,0.48,1.838c0.265,0,0.48-0.635,0.48-1.539
			c0-0.904,0.107-1.586,0.241-1.586c0.136,0,0.242-2.529,0.242-4.869c-0.003-2.354,0.65-4.883,1.454-4.883c0.806,0,1.457,0,1.457,0
			c1.648,0,2.9-0.024,2.9-1.672v-6.693c0-4.779,6.084-21.445,29.084-21.445c40.26-0.908,46.688,6.541,40.146,28.104
			c-4.248,12.859-6.67,19.506-8.068,23.738c-1.037,3.145-4.551,4.951-7.861,4.951H56.75c-1.406,0-2.98,2.619-2.98,4.023v32.123
			c0,1.406,1.574,1.096,2.98,1.096h140.896c1.406,0,3.025,0.311,3.025-1.096v-32.123c0-1.398-1.619-4.023-3.025-4.023h-11.469
			c-3.311,0-6-1.947-6.007-5.256l-0.044-31.592c-0.004-3.316,0.413-6.006,1.562-6.502c1.007-0.436,0.992-0.754,0.992-1.283v-9.326
			c0-0.875,0-1.828,0-2.852v-0.543c0-0.295,1.83-0.541,2.999-0.541c1.168,0,2.997,1.381,2.997,3.086s0,3.092,0,3.092
			c0,1.664,0.78,3.746,2.448,3.746h0.747c1.665,0,2.803-2.08,2.803-3.746v-3.221c0-1.781,0.881-3.225,1.501-3.225
			c0.617,0,1.498,2.137,1.498,4.76c0,2.627,0,4.758,0,4.758c0,2.379,0.655,3.672,2.131,3.672h0.767c1.469,0,3.099-1.293,3.099-3.672
			V23.863C203.671,21.479,202.041,18.225,200.575,18.225z M86.618,134.037h-5.303v-14.859h-4.359v-4.6h14.021v4.6h-4.359V134.037z
			 M104.986,134.037l-0.983-3.484h-7.537l-1.01,3.484H90.18l6.711-19.459h6.646l6.726,19.459H104.986z M117.612,134.037h-5.356
			v-19.459h5.356V134.037z M133.787,134.037h-11.896v-19.459h5.304v14.914h6.592V134.037z M153.036,77.873l11.219-17.867
			c0.062-0.109,0.264-0.471,0.562-0.889c-0.057-0.434-0.061-0.9,0.016-1.412c0.241-1.633,1.145-2.654,2.418-2.729
			c1.444-0.086,2.915,1.098,3.342,2.686c0.442,1.633,0.225,3.514-0.444,5.762c0.143,0.072,0.282,0.145,0.416,0.215
			c2.23,1.18,3.846,5.816,3.916,6.012c0.064,0.191-0.037,0.4-0.227,0.467c-0.19,0.064-0.398-0.035-0.465-0.227
			c-0.016-0.045-1.589-4.561-3.564-5.604c-0.096-0.053-0.195-0.104-0.298-0.154c-0.401,1.229-0.924,2.564-1.537,4.021
			c-1.595,3.793-0.84,6.789,0.011,7.33c0.171,0.107,0.221,0.334,0.111,0.506c-0.068,0.107-0.186,0.168-0.308,0.168
			c-0.066,0-0.135-0.018-0.195-0.057c-1.21-0.771-2.009-4.145-0.294-8.23c0.627-1.486,1.155-2.838,1.555-4.072
			c-0.891-0.449-1.877-0.979-2.7-1.676l-12.905,16.195c-0.098,0.123-0.198,0.25-0.388,0.25h-0.217l-0.105-0.191
			C152.844,78.178,152.95,78.01,153.036,77.873z M168.521,100.064v4.949h-0.653v-8.201h0.657l1.831,5.586
			c0.165,0.504,0.262,0.822,0.287,0.959h0.045c-0.053-0.342-0.08-0.771-0.08-1.291v-5.254h0.675v8.201h-0.675
			c-0.07-0.269-0.21-0.701-0.414-1.295l-0.726-2.115c-0.125-0.352-0.309-0.873-0.549-1.572c-0.214-0.625-0.359-1.16-0.441-1.6
			h-0.043C168.492,98.906,168.521,99.451,168.521,100.064z M171.261,91.961c-0.039-0.404-0.107-1.154-0.211-2.248l-0.409-4.572
			h-0.043c0,0.402-0.054,0.922-0.159,1.555c-0.096,0.52-0.191,1.035-0.286,1.553l-0.371,2.107l-0.263,1.605h-0.62l-1.02-6.82h-0.021
			c0,0.309-0.016,0.682-0.052,1.121c-0.01,0.127-0.026,0.322-0.051,0.584c-0.189,1.504-0.393,3.209-0.613,5.115h-0.754l1.151-8.201
			h0.655l1.024,6.926h0.043c0-0.191,0.02-0.445,0.055-0.76c0.068-0.584,0.266-1.795,0.593-3.633
			c0.058-0.324,0.118-0.664,0.181-1.025l0.262-1.508h0.652l0.996,8.201H171.261z M166.577,96.813v8.201h-0.765v-8.201H166.577z
			 M161.856,100.781v4.232h-0.766v-8.201h0.766v3.273h1.869v-3.273h0.76v8.201h-0.76v-4.232H161.856z M157.993,84.445V83.76h3.23
			v0.686h-1.244v7.516h-0.76v-7.516H157.993z M163.67,92.07c-0.668,0-1.145-0.307-1.434-0.924c-0.352-0.754-0.525-1.588-0.525-2.508
			v-0.057c0-0.135-0.008-0.244-0.021-0.324c0-0.096,0.004-0.236,0.011-0.422c0.007-0.186,0.011-0.326,0.011-0.422
			c0-1.41,0.232-2.457,0.701-3.141c0.297-0.432,0.731-0.646,1.301-0.646c0.994,0,1.611,0.662,1.85,1.99
			c0.107,0.615,0.164,1.152,0.164,1.621c0,0.158-0.004,0.389-0.012,0.691c-0.007,0.336-0.01,0.564-0.01,0.689
			c0,0.918-0.166,1.742-0.498,2.475C164.913,91.746,164.401,92.07,163.67,92.07z M149.612,83.76h0.76v5.947
			c0,0.49,0.041,0.846,0.121,1.068c0.135,0.375,0.398,0.564,0.793,0.564c0.453,0,0.748-0.197,0.886-0.586
			c0.078-0.215,0.117-0.602,0.117-1.156V83.76h0.759v5.773c0,1.119-0.203,1.855-0.609,2.209c-0.252,0.221-0.613,0.328-1.084,0.328
			c-0.857,0-1.387-0.346-1.589-1.041c-0.102-0.35-0.153-0.811-0.153-1.385V83.76z M152.198,104.318v0.695h-2.544v-8.201h0.765v7.506
			H152.198z M145.867,84.965c0.159-0.396,0.393-0.713,0.7-0.945c0.326-0.248,0.695-0.371,1.105-0.371
			c0.425,0,0.758,0.086,0.998,0.258v0.83c-0.275-0.227-0.595-0.34-0.955-0.34c-0.443,0-0.783,0.189-1.021,0.568
			c-0.181,0.285-0.32,0.766-0.419,1.439c-0.078,0.527-0.117,1.033-0.117,1.52c0,0.729,0.08,1.434,0.238,2.119
			c0.199,0.85,0.617,1.275,1.254,1.275c0.383,0,0.723-0.121,1.02-0.361v0.773c-0.379,0.229-0.746,0.34-1.104,0.34
			c-0.655,0-1.185-0.35-1.589-1.051c-0.268-0.467-0.445-1.131-0.53-1.992c-0.031-0.322-0.048-0.676-0.048-1.062
			C145.399,86.74,145.555,85.74,145.867,84.965z M145.867,98.02c0.159-0.396,0.393-0.713,0.7-0.947
			c0.326-0.248,0.695-0.369,1.105-0.369c0.425,0,0.758,0.084,0.998,0.258v0.828c-0.275-0.225-0.595-0.34-0.955-0.34
			c-0.443,0-0.783,0.191-1.021,0.57c-0.181,0.287-0.32,0.764-0.419,1.438c-0.078,0.529-0.117,1.033-0.117,1.52
			c0,0.73,0.08,1.438,0.238,2.119c0.199,0.85,0.617,1.275,1.254,1.275c0.383,0,0.723-0.119,1.02-0.361v0.775
			c-0.379,0.227-0.746,0.34-1.104,0.34c-0.655,0-1.185-0.35-1.589-1.051c-0.268-0.469-0.445-1.133-0.53-1.992
			c-0.031-0.322-0.048-0.676-0.048-1.062C145.399,99.795,145.555,98.793,145.867,98.02z M155.104,128.281
			c-0.514,1.223-1.262,2.316-2.246,3.283c-0.992,0.955-2.125,1.693-3.402,2.213c-1.275,0.518-2.601,0.777-3.974,0.777
			c-1.391,0-2.722-0.26-3.993-0.777c-1.272-0.52-2.391-1.258-3.356-2.213c-1.001-0.967-1.761-2.064-2.279-3.297
			c-0.519-1.23-0.777-2.539-0.777-3.92c0-1.393,0.259-2.699,0.777-3.928c0.519-1.227,1.278-2.322,2.279-3.289
			c0.966-0.959,2.084-1.695,3.356-2.213c1.271-0.52,2.603-0.777,3.993-0.777c1.382,0,2.714,0.258,3.993,0.777
			c1.281,0.518,2.409,1.254,3.383,2.213c0.975,0.957,1.722,2.053,2.24,3.281c0.518,1.232,0.777,2.543,0.777,3.935
			C155.875,125.748,155.62,127.059,155.104,128.281z M156.627,100.982c-0.007,0.336-0.01,0.566-0.01,0.691
			c0,0.916-0.166,1.742-0.5,2.475c-0.293,0.65-0.805,0.977-1.535,0.977c-0.668,0-1.146-0.307-1.434-0.924
			c-0.352-0.754-0.525-1.59-0.525-2.506v-0.061c0-0.133-0.008-0.242-0.021-0.324c0-0.096,0.004-0.234,0.011-0.42
			c0.007-0.188,0.011-0.328,0.011-0.422c0-1.41,0.232-2.457,0.7-3.141c0.298-0.432,0.731-0.646,1.302-0.646
			c0.995,0,1.611,0.662,1.848,1.99c0.11,0.613,0.165,1.152,0.165,1.619C156.638,100.451,156.635,100.682,156.627,100.982z
			 M156.601,91.742c-0.308,0.221-0.659,0.328-1.052,0.328c-0.538,0-0.977-0.135-1.316-0.406v-0.998
			c0.374,0.447,0.82,0.674,1.338,0.674c0.361,0,0.656-0.148,0.887-0.441c0.212-0.27,0.318-0.59,0.318-0.961
			c0-0.637-0.253-1.137-0.76-1.504l-0.77-0.557c-0.557-0.404-0.922-0.832-1.1-1.285c-0.102-0.262-0.154-0.57-0.154-0.922
			c0-0.381,0.104-0.748,0.313-1.098c0.368-0.617,0.901-0.924,1.599-0.924c0.449,0,0.875,0.141,1.275,0.424v0.977
			c-0.354-0.436-0.742-0.652-1.164-0.652c-0.379,0-0.682,0.137-0.907,0.414c-0.216,0.258-0.325,0.582-0.325,0.967
			c0,0.184,0.037,0.373,0.112,0.562c0.099,0.252,0.37,0.549,0.812,0.889l0.882,0.674c0.645,0.492,0.967,1.115,0.967,1.869
			C157.557,90.633,157.239,91.289,156.601,91.742z M159.12,105.014h-0.76v-7.516h-1.228v-0.686h3.23v0.686h-1.242V105.014z
			 M168.634,134.037l-4.465-7.617v7.617h-4.972v-19.459h5.543c2.172,0,3.685,0.1,4.538,0.299c0.856,0.199,1.593,0.533,2.214,1.004
			c0.7,0.533,1.237,1.211,1.615,2.033c0.377,0.824,0.564,1.732,0.564,2.725c0,1.506-0.368,2.733-1.108,3.676
			c-0.741,0.943-1.819,1.57-3.235,1.881l5.301,7.842H168.634z M176.026,102.25c0,1.312-0.219,2.154-0.658,2.525
			c-0.275,0.232-0.606,0.35-0.993,0.35c-0.853,0-1.424-0.449-1.71-1.352c-0.125-0.391-0.205-0.787-0.244-1.188
			c0-0.168-0.004-0.324-0.011-0.469c-0.024-0.512-0.038-0.805-0.038-0.879v-0.553c-0.01-0.059-0.018-0.1-0.021-0.123
			c0-1.074,0.115-1.934,0.341-2.58c0.301-0.854,0.855-1.279,1.662-1.279c0.858,0,1.407,0.51,1.651,1.533l-0.736,0.291
			c-0.128-0.719-0.426-1.078-0.893-1.078c-0.523,0-0.877,0.334-1.062,1c-0.102,0.371-0.153,0.918-0.153,1.637v0.248l-0.048,0.871
			c-0.015,0.252,0.005,0.623,0.059,1.109c0.04,0.352,0.091,0.688,0.159,1.01c0.131,0.611,0.372,0.955,0.723,1.025
			c0.106,0.021,0.197,0.033,0.27,0.033c0.631,0,0.947-0.57,0.947-1.711v-1.291h-1.111v-0.695h1.869V102.25z"/>
	</g>
	<g>
	</g>
	<g>
	</g>
	<g>
	</g>
	<g>
	</g>
	<g>
	</g>
	<g>
	</g>
</g>
</svg>
